{
	"asset":{
		"generator":"Khronos glTF Blender I/O v4.0.44",
		"version":"2.0"
	},
	"extensionsUsed":[
		"KHR_materials_specular",
		"KHR_materials_ior"
	],
	"scene":0,
	"scenes":[
		{
			"name":"Scene",
			"nodes":[
				0
			]
		}
	],
	"nodes":[
		{
			"mesh":0,
			"name":"Green_tea_3",
			"rotation":[
				0.7071068286895752,
				0,
				0,
				0.7071068286895752
			]
		}
	],
	"materials":[
		{
			"doubleSided":true,
			"extensions":{
				"KHR_materials_specular":{
					"specularFactor":0
				},
				"KHR_materials_ior":{
					"ior":1.4500000476837158
				}
			},
			"name":"default",
			"pbrMetallicRoughness":{
				"baseColorTexture":{
					"index":0
				},
				"metallicFactor":0
			}
		}
	],
	"meshes":[
		{
			"name":"Green_tea_3",
			"primitives":[
				{
					"attributes":{
						"POSITION":0,
						"NORMAL":1,
						"TEXCOORD_0":2
					},
					"indices":3,
					"material":0
				}
			]
		}
	],
	"textures":[
		{
			"sampler":0,
			"source":0
		}
	],
	"images":[
		{
			"mimeType":"image/jpeg",
			"name":"Tea-label-baxxscewt",
			"uri":"Tea-label-baxxscewt.jpg"
		}
	],
	"accessors":[
		{
			"bufferView":0,
			"componentType":5126,
			"count":2259,
			"max":[
				3.795501947402954,
				3.795501708984375,
				0
			],
			"min":[
				-3.795501947402954,
				-3.795501708984375,
				-19.36750030517578
			],
			"type":"VEC3"
		},
		{
			"bufferView":1,
			"componentType":5126,
			"count":2259,
			"type":"VEC3"
		},
		{
			"bufferView":2,
			"componentType":5126,
			"count":2259,
			"type":"VEC2"
		},
		{
			"bufferView":3,
			"componentType":5123,
			"count":5754,
			"type":"SCALAR"
		}
	],
	"bufferViews":[
		{
			"buffer":0,
			"byteLength":27108,
			"byteOffset":0,
			"target":34962
		},
		{
			"buffer":0,
			"byteLength":27108,
			"byteOffset":27108,
			"target":34962
		},
		{
			"buffer":0,
			"byteLength":18072,
			"byteOffset":54216,
			"target":34962
		},
		{
			"buffer":0,
			"byteLength":11508,
			"byteOffset":72288,
			"target":34963
		}
	],
	"samplers":[
		{
			"magFilter":9729,
			"minFilter":9987
		}
	],
	"buffers":[
		{
			"byteLength":83796,
			"uri":"soda.bin"
		}
	]
}
